<?xml version="1.0" encoding="UTF-8" standalone="no"?>
<!DOCTYPE svg PUBLIC "-//W3C//DTD SVG 20010904//EN" "http://www.w3.org/TR/2001/REC-SVG-20010904/DTD/svg10.dtd">
<svg version="1.0" xmlns="http://www.w3.org/2000/svg" width="138.000000pt" height="148.000000pt" viewBox="0 0 138.000000 148.000000" preserveAspectRatio="xMidYMid meet">
<metadata>
Created by potrace 1.10, written by Peter Selinger 2001-2011
</metadata>
<g transform="translate(0.000000,148.000000) scale(0.050000,-0.050000)" fill="rgba(206, 147, 216, 0.9)" stroke="none">
<path d="M650 2899 c-328 -126 -590 -506 -590 -855 l0 -158 238 -113 c235 -113 238 -114 295 -80 108 61 507 -145 507 -262 0 -38 241 -172 483 -268 9 -3 17 44 17 106 0 319 283 735 604 887 63 30 114 59 115 65 3 27 -1448 719 -1506 718 -35 -1 -108 -18 -163 -40z"/>
<path d="M2338 2082 c-296 -116 -552 -427 -603 -733 -35 -216 -53 -218 484 51 l481 240 0 171 c0 286 -111 369 -362 271z"/>
<path d="M65 1259 l5 -485 765 -376 765 -375 0 495 0 496 -255 122 -255 121 -15 -55 c-29 -108 -96 -113 -302 -20 -239 107 -253 120 -253 246 l0 102 -213 100 c-117 55 -221 103 -231 107 -9 4 -14 -212 -11 -478z"/>
<path d="M653 1518 c-26 -126 -21 -133 140 -207 84 -39 156 -71 160 -71 4 0 7 47 7 106 l0 105 -134 60 c-74 32 -140 62 -147 65 -8 3 -19 -23 -26 -58z"/>
<path d="M2210 1253 l-480 -243 7 -480 c5 -264 11 -483 14 -487 6 -7 887 466 936 503 28 21 30 79 17 487 l-14 463 -480 -243z"/>
</g>
</svg>